<svg xmlns="http://www.w3.org/2000/svg" width="32" height="32"><g fill-rule="evenodd"><path fill="#f05542" d="M4.815 29.987c-5.749-6.696 1.086-13.129-.085-17.482 4.337 1.642 4.987 4.899 4.987 4.899S8.06 5.088 19.314 1C19 7.5 24.237 6.104 21.812 14.172c1.715-2.986 3.436-4.881 5.833-5.527-.375 6.606 5.052 10.671-1.077 21.342z"/><path fill="#f17f53" d="M10.082 30c-2.022-5.602 1.011-9.667 6.572-17.29.506 5.59 2.528 2.541 3.033 9.147 1.22-4.573 2.528-4.9 4.55-5.445-1.011 5.953 3.033 8.506-2.022 13.588z"/><path fill="#2b4255" style="line-height:normal;text-indent:0;text-align:start;text-decoration-line:none;text-decoration-style:solid;text-decoration-color:#000;text-transform:none;block-progression:tb;isolation:auto;mix-blend-mode:normal" d="M-998.531 1437.633v1h30v-1h-30z" color="#000" font-family="sans-serif" font-weight="400" overflow="visible" transform="translate(999.531 -1406.633)"/></g></svg>