<svg xmlns="http://www.w3.org/2000/svg" width="48" height="48" fill-rule="evenodd" stroke-linejoin="round" stroke-miterlimit="2" clip-rule="evenodd"><path fill="#9fa8da" d="M14,16.535L10.226,14.02C8.836,13.092 8,11.531 8,9.859C8,7.197 8,3 8,3C8,2.448 8.448,2 9,2L15,2C15.552,2 16,2.448 16,3L16,8L20,8L20,3C20,2.448 20.448,2 21,2L27,2C27.552,2 28,2.448 28,3L28,8L32,8L32,3C32,2.448 32.448,2 33,2L39,2C39.552,2 40,2.448 40,3L40,9.859C40,11.531 39.164,13.092 37.774,14.02L34,16.535L34,35.371L38.346,37.553C39.36,38.062 40,39.099 40,40.234L40,45C40,45.552 39.552,46 39,46L9,46C8.448,46 8,45.552 8,45C8,45 8,41.977 8,40.222C8,39.097 8.63,38.066 9.631,37.553L14,35.313L14,16.535Z"/><path fill="#5c6bc0" d="m 34,23.95 v 11.421 l 4.346,2.182 C 39.36,38.062 40,39.099 40,40.234 V 45 c 0,0.552 -0.448,1 -1,1 H 9 C 8.448,46 8,45.552 8,45 8,45 8,41.977 8,40.222 8,39.097 8.63,38.066 9.631,37.553 l 3.238,-1.66 C 13.569,35.964 14.28,36 15,36 23.39,36 30.638,31.069 34,23.95 Z"/><path fill="#0d47a1" d="M 14,16.535 10.226,14.02 C 8.836,13.092 8,11.531 8,9.859 8,7.197 8,3 8,3 8,2.448 8.448,2 9,2 h 6 c 0.552,0 1,0.448 1,1 v 5 h 4 V 3 c 0,-0.552 0.448,-1 1,-1 h 6 c 0.552,0 1,0.448 1,1 v 5 h 4 V 3 c 0,-0.552 0.448,-1 1,-1 h 6 c 0.552,0 1,0.448 1,1 v 6.859 c 0,1.672 -0.836,3.233 -2.226,4.161 L 34,16.535 v 18.836 l 4.346,2.182 C 39.36,38.062 40,39.099 40,40.234 V 45 c 0,0.552 -0.448,1 -1,1 H 9 C 8.448,46 8,45.552 8,45 8,45 8,41.977 8,40.222 8,39.097 8.63,38.066 9.631,37.553 L 14,35.313 Z M 32.788,37 H 15.093 l -4.549,2.332 C 10.21,39.503 10,39.847 10,40.222 V 44 H 38 V 40.234 C 38,39.856 37.787,39.51 37.449,39.34 Z M 16,17 V 35 H 32 V 17 Z M 14,4 h -4 v 5.859 c 0,1.003 0.501,1.94 1.336,2.496 L 15.303,15 h 17.394 l 3.967,-2.645 C 37.499,11.799 38,10.862 38,9.859 V 4 h -4 v 5 c 0,0.552 -0.448,1 -1,1 H 27 C 26.448,10 26,9.552 26,9 V 4 h -4 v 5 c 0,0.552 -0.448,1 -1,1 H 15 C 14.448,10 14,9.552 14,9 Z"/></svg>