<svg xmlns="http://www.w3.org/2000/svg" enable-background="new 0 0 512 512" viewBox="0 0 512 512"><path d="M478.433,421.929L369.708,313.204c-4.707-4.706-12.338-4.703-17.041,0.007l-34.456-34.456
	c-6.67-6.67-8.031-17.063-3.122-25.118c14.211-23.314,22.484-50.638,22.735-79.866c0.738-86.159-69.232-157.233-155.393-157.768
	C95.599,15.465,25.05,85.695,25.05,172.403c0,86.365,70.012,156.39,156.39,156.39c22.527,0,43.938-4.758,63.282-13.343
	c7.759-3.443,16.839-1.712,22.841,4.291l39.269,39.279l-2.695,2.698c-4.699,4.705-4.697,12.327,0.005,17.029l108.736,108.736
	c4.704,4.704,12.33,4.704,17.034,0l48.521-48.521C483.137,434.259,483.137,426.632,478.433,421.929z M181.441,282.63
	c-60.874,0-110.241-49.352-110.241-110.226c0-60.889,49.367-110.24,110.241-110.24s110.225,49.352,110.225,110.24
	C291.667,233.278,242.315,282.63,181.441,282.63z"/></svg>